inDegrees=yes
name=ik_lifting_orientations
DataType=double
version=3
OpenSimVersion=4.5-2024-01-10-34fd6af
endheader
time	pelvis_tilt	pelvis_list	pelvis_rotation	pelvis_tx	pelvis_ty	pelvis_tz	hip_flexion_r	hip_adduction_r	hip_rotation_r	knee_angle_r	knee_angle_r_beta	ankle_angle_r	subtalar_angle_r	mtp_angle_r	hip_flexion_l	hip_adduction_l	hip_rotation_l	knee_angle_l	knee_angle_l_beta	ankle_angle_l	subtalar_angle_l	mtp_angle_l	lumbar_extension	lumbar_bending	lumbar_rotation	arm_flex_r	arm_add_r	arm_rot_r	elbow_flex_r	pro_sup_r	wrist_flex_r	wrist_dev_r	arm_flex_l	arm_add_l	arm_rot_l	elbow_flex_l	pro_sup_l	wrist_flex_l	wrist_dev_l
0.72	2.009544030736773	14.84134714492663	10.39954000556164	0	0.9399999998679526	0	44.5467488683591	-10.01435660714873	0	60.24827458647161	1.051530760179555	-4.989949560233366	0	0	44.5467488683591	-10.01435660714873	0	60.24827458647161	1.051530760179555	-4.989949560233366	0	0	-3.152948548979944	-20.56739794875584	3.558674335710991	-0.935868870191683	-38.63614603332127	-2.153493601339545	52.85697022839012	-0.2129820561875266	0	0	0	-13.4977189555271	0	90.3395707917504	-0.2129820561875266	0	0
0.73	0.8874251341243319	12.33905956974129	11.23232286411808	0	0.9399999998679526	0	44.54686236010838	-10.01434413889663	0	60.24822553218105	1.051529904020672	-4.989960929911383	0	0	44.54686236010838	-10.01434413889663	0	60.24822553218105	1.051529904020672	-4.989960929911383	0	0	-1.761690106827829	-18.30871380969811	3.052011871668303	-1.145304987526859	-39.3801391071087	-1.702981779433025	52.88823682739735	-0.2129448887688264	0	0	0	-13.49791237203797	0	90.33951149020925	-0.2129448887688264	0	0
0.74	0.4591562310915102	10.62072935975114	12.1927576933983	0	0.9399999998679526	0	44.5494505517154	-10.01413992871252	0	60.24684231802426	1.051505762379376	-4.990133822278342	0	0	44.5494505517154	-10.01413992871252	0	60.24684231802426	1.051505762379376	-4.990133822278342	0	0	-1.284742127384149	-16.67176538519866	2.191779048771526	0.6268116362967273	-41.82468170730375	1.404588072303233	53.10466400411806	-0.2120207441670775	0	0	0	-13.50306295213625	0	90.33803700172997	-0.2120207441670775	0	0
0.75	-0.2184671879663248	7.715046030607729	12.23507687905123	0	0.9399999998679526	0	44.5524526864605	-10.01390579472719	0	60.24523584651868	1.051477724162264	-4.990331266495362	0	0	44.5524526864605	-10.01390579472719	0	60.24523584651868	1.051477724162264	-4.990331266495362	0	0	0.01129598301554082	-13.98354497626449	2.264702496825476	1.434959365676096	-44.49461528631171	3.687499665113152	53.44066522700783	-0.2109467085487954	0	0	0	-13.50905683399917	0	90.33632335975132	-0.2109467085487954	0	0
0.76	-0.854544199175817	6.898674408863098	11.97405005401899	0	0.9399999998679526	0	44.55425716352626	-10.01376092483494	0	60.24428779614557	1.051461177561779	-4.990454314247083	0	0	44.55425716352626	-10.01376092483494	0	60.24428779614557	1.051461177561779	-4.990454314247083	0	0	0.5767156691106066	-14.83377750879657	2.720505320598845	3.249714483531098	-45.27892697862657	6.035456874695045	53.29537102529225	-0.2103053986719927	0	0	0	-13.51261808405961	0	90.33530013864201	-0.2103053986719927	0	0
0.77	-1.370163129600876	6.633360275352097	12.77813891643205	0	0.9399999998679526	0	44.5565149442112	-10.0135809283201	0	60.24310063612053	1.051440457710594	-4.990606827246088	0	0	44.5565149442112	-10.0135809283201	0	60.24310063612053	1.051440457710594	-4.990606827246088	0	0	0.9335027638886911	-14.69828735429199	1.956875743997962	6.338684485124728	-47.19994168808118	9.261356385344239	52.495794625656	-0.2095020399021592	0	0	0	-13.51708279291168	0	90.33401836577607	-0.2095020399021592	0	0
0.78	-1.354825832578719	6.656363822499864	12.77446621684437	0	0.9399999998679526	0	44.55661676979953	-10.0135701959311	0	60.24305633041738	1.051439684430196	-4.990616481555442	0	0	44.55661676979953	-10.0135701959311	0	60.24305633041738	1.051439684430196	-4.990616481555442	0	0	1.882786888509073	-14.11407344067789	2.242628248039039	5.730090466006327	-47.89012390356579	10.16503613767322	52.13086638448264	-0.209468438141067	0	0	0	-13.5172586101321	0	90.33396475335887	-0.209468438141067	0	0
0.79	-1.978247393781181	5.832261449354158	12.48627445391494	0	0.9399999998679526	0	44.5586294807951	-10.01341192328541	0	60.24199449608336	1.051421151924957	-4.990750004235159	0	0	44.5586294807951	-10.01341192328541	0	60.24199449608336	1.051421151924957	-4.990750004235159	0	0	2.762889333443087	-13.42431205277882	2.57393969484047	9.020125352027414	-50.52678139230441	15.2922953557206	52.19287029853225	-0.2087504673315227	0	0	0	-13.5212558830836	0	90.33281921861931	-0.2087504673315227	0	0
0.8	-1.989921382034562	5.817614600604478	12.47233309608576	0	0.9399999998679526	0	44.55909958062836	-10.01336184580965	0	60.2417930279242	1.051417635642242	-4.990795072550921	0	0	44.55909958062836	-10.01336184580965	0	60.2417930279242	1.051417635642242	-4.990795072550921	0	0	2.773988086490009	-13.41532601914049	2.591857251980869	10.9454705529291	-50.20254698267681	17.71785788880143	51.39653653628445	-0.2085960604722162	0	0	0	-13.52206039295567	0	90.33257285870471	-0.2085960604722162	0	0
0.8100000000000001	-2.501341153767381	5.541147167669089	13.29261428601339	0	0.9399999998679526	0	44.55948737167198	-10.01332066633779	0	60.24162669701718	1.051414732620266	-4.990832089693503	0	0	44.55948737167198	-10.01332066633779	0	60.24162669701718	1.051414732620266	-4.990832089693503	0	0	3.140595820226542	-13.30345872622926	1.78249069825924	13.7509307795997	-50.08841974168355	20.99022771657167	50.40232465107169	-0.2084686211017156	0	0	0	-13.52272464393526	0	90.33236952608381	-0.2084686211017156	0	0
